<svg width="57" height="57" viewBox="0 0 57 57" fill="none" xmlns="http://www.w3.org/2000/svg">
<g clip-path="url(#clip0)">
<path d="M48.64 11.438C48.2101 11.438 47.7826 11.286 47.4406 10.9725C42.199 6.194 35.473 3.5625 28.5 3.5625C21.527 3.5625 14.801 6.194 9.55939 10.9749C8.83027 11.6375 7.70452 11.5829 7.04189 10.8585C6.37927 10.1318 6.43152 9.00362 7.15827 8.341C13.0601 2.96162 20.6388 0 28.5 0C36.3613 0 43.9399 2.96162 49.8418 8.341C50.5685 9.00362 50.6208 10.1294 49.9581 10.8585C49.6066 11.2432 49.1245 11.438 48.64 11.438Z" fill="#00A8CC"/>
<path d="M51.6564 23.078C51.084 23.078 50.5187 22.8025 50.1767 22.2895C45.232 14.927 37.1285 10.5308 28.5001 10.5308C19.8717 10.5308 11.7682 14.927 6.82349 22.2895C6.27487 23.1088 5.16574 23.3273 4.35112 22.7763C3.53412 22.2277 3.31562 21.121 3.86424 20.304C9.47162 11.9558 18.6819 6.9707 28.5001 6.9707C38.3184 6.9707 47.5286 11.9558 53.136 20.3063C53.6846 21.1233 53.4685 22.2301 52.6491 22.7787C52.3451 22.9806 52.0007 23.078 51.6564 23.078Z" fill="#00A8CC"/>
<path d="M22.8736 57.0002C22.4152 57.0002 21.9568 56.8244 21.6077 56.4729C21.2182 56.081 12.0911 46.7639 12.0911 37.7935C12.0911 28.4835 19.4512 20.9097 28.4999 20.9097C37.5487 20.9097 44.9088 28.4835 44.9088 37.7935C44.9088 38.7768 44.1108 39.5748 43.1276 39.5748C42.1443 39.5748 41.3463 38.7768 41.3463 37.7935C41.3463 30.4477 35.5846 24.4722 28.4999 24.4722C21.4153 24.4722 15.6536 30.4477 15.6536 37.7935C15.6536 45.3152 24.0539 53.8794 24.1394 53.9649C24.8329 54.6632 24.8282 55.7913 24.1276 56.4848C23.7808 56.8292 23.3272 57.0002 22.8736 57.0002Z" fill="#00A8CC"/>
<path d="M34.1265 57.0001C29.842 57.0001 19.9097 48.8491 18.9479 39.7718C18.6082 36.5632 19.6295 33.281 21.6767 30.9915C23.458 29.0012 25.8639 27.8968 28.4502 27.8826H28.5001C31.0224 27.8826 33.4069 28.873 35.2214 30.6756C37.1166 32.559 38.1592 35.0883 38.1592 37.7958V38.9572C38.1592 41.8191 40.387 44.1466 43.1277 44.1466C45.8685 44.1466 48.0986 41.8191 48.0986 38.9572V38.5511C48.0986 27.4598 40.064 18.233 29.8064 17.549C24.4579 17.1856 19.3279 19.0333 15.3687 22.7336C11.26 26.5763 8.90399 32.0673 8.90399 37.7958C8.90399 42.5078 10.5 47.0987 13.3975 50.723C14.0102 51.4925 13.8867 52.6111 13.1172 53.2262C12.3501 53.8413 11.2291 53.7155 10.6116 52.946C7.21299 48.6923 5.33911 43.3106 5.33911 37.7935C5.33911 31.0817 8.10836 24.6431 12.932 20.1306C17.6179 15.7463 23.6931 13.5661 30.0391 13.9912C42.1611 14.8011 51.6587 25.5883 51.6587 38.5487V38.9548C51.6587 43.7808 47.8302 47.7067 43.1254 47.7067C38.4205 47.7067 34.5944 43.7808 34.5944 38.9548V37.7935C34.5944 36.0407 33.9246 34.4115 32.7086 33.2002C31.5686 32.065 30.0747 31.4427 28.5001 31.4427C28.4882 31.4427 28.4787 31.4427 28.4669 31.4427C26.46 31.4522 25.1086 32.4948 24.3296 33.3665C22.9402 34.9173 22.2515 37.1736 22.4866 39.3966C23.2727 46.8018 31.7824 53.44 34.1241 53.44C35.1074 53.44 35.9054 54.238 35.9054 55.2212C35.9054 56.2045 35.1097 57.0001 34.1265 57.0001Z" fill="#00A8CC"/>
<path d="M40.736 53.5157C34.3615 53.5157 26.5786 45.7257 26.5786 36.6318C26.5786 35.6486 27.3766 34.8506 28.3599 34.8506C29.3431 34.8506 30.1411 35.6486 30.1411 36.6318C30.1411 43.6808 36.0667 49.9532 40.736 49.9532C41.7192 49.9532 42.5172 50.7512 42.5172 51.7345C42.5172 52.7177 41.7192 53.5157 40.736 53.5157Z" fill="#00A8CC"/>
</g>
<defs>
<clipPath id="clip0">
<rect width="57" height="57" fill="white"/>
</clipPath>
</defs>
</svg>
