<svg width="20" height="20" viewBox="0 0 20 20" fill="none" xmlns="http://www.w3.org/2000/svg">
<path d="M16.7086 5.54648V3.74375H14.2504L10 0.626953L5.74961 3.74375H3.29141V5.54648L0 7.96016V19.3727H20V7.96016L16.7086 5.54648ZM16.7086 6.99961L18.5109 8.32149L16.7086 10.0871V6.99961ZM10 2.08047L12.2684 3.74375H7.73164L10 2.08047ZM4.46328 4.91563H15.5367V11.2348L13.8 12.9359L13.7999 12.9361H6.20012L6.2 12.9359L4.46328 11.2348V4.91563ZM3.29141 6.99961V10.0871L1.48906 8.32149L3.29141 6.99961ZM1.17188 9.65156L5.12379 13.5218L1.17188 17.3928V9.65156ZM2.02168 18.2008L6.20016 14.1079H13.7999L17.9784 18.2008H2.02168ZM18.8281 17.3928L14.8762 13.5218L18.8281 9.65156V17.3928Z" fill="#142850" fill-opacity="0.69"/>
</svg>
