<svg width="20" height="20" viewBox="0 0 20 20" fill="none" xmlns="http://www.w3.org/2000/svg">
<path d="M17.8568 0H8.57112C7.38765 0 6.42826 0.959388 6.42826 2.14286V6.42857C6.42826 6.82307 6.74806 7.14287 7.14256 7.14287C7.53707 7.14287 7.85686 6.82307 7.85686 6.42857V2.14286C7.85686 1.74835 8.17666 1.42856 8.57116 1.42856H17.8569C18.2514 1.42856 18.5712 1.74835 18.5712 2.14286V17.8571C18.5712 18.2516 18.2514 18.5714 17.8569 18.5714H8.57112C8.17662 18.5714 7.85682 18.2516 7.85682 17.8571V13.5714C7.85682 13.1769 7.53702 12.8571 7.14252 12.8571C6.74802 12.8571 6.42822 13.1769 6.42822 13.5714V17.8571C6.42822 19.0406 7.38761 20 8.57108 20H17.8568C19.0403 20 19.9997 19.0406 19.9997 17.8571V2.14286C19.9997 0.959388 19.0403 0 17.8568 0Z" fill="#142850" fill-opacity="0.72"/>
<path d="M14.2851 9.28528H2.43797L4.79013 6.93313C5.06418 6.64937 5.05632 6.19719 4.77256 5.92314C4.49574 5.65583 4.05692 5.65583 3.78015 5.92314L0.208691 9.49455C0.142355 9.56093 0.0899134 9.63982 0.0544224 9.7267C-0.0178153 9.90144 -0.0178153 10.0977 0.0544224 10.2724C0.0900808 10.3596 0.142773 10.4387 0.209403 10.5053L3.78082 14.0767C4.05487 14.3605 4.50704 14.3683 4.7908 14.0943C5.07456 13.8202 5.08243 13.368 4.80838 13.0843C4.80265 13.0783 4.79679 13.0725 4.7908 13.0667L2.43797 10.7138H14.2851C14.6796 10.7138 14.9994 10.394 14.9994 9.99954C14.9994 9.60504 14.6796 9.28528 14.2851 9.28528Z" fill="#142850" fill-opacity="0.72"/>
</svg>
