<svg width="20" height="20" viewBox="0 0 20 20" fill="none" xmlns="http://www.w3.org/2000/svg">
<g clip-path="url(#clip0)">
<path d="M19.8 0.200195H0.200012V19.7996H19.8V0.200195Z" fill="#FFC325"/>
<path d="M0.498108 10.0001C0.498108 7.95306 4.75231 6.29346 10.0001 6.29346C15.2479 6.29346 19.5021 7.95346 19.5021 10.0003C19.5021 12.0471 15.2481 13.7063 10.0001 13.7063C4.75211 13.7063 0.498108 12.0469 0.498108 10.0001Z" fill="#006891"/>
<path d="M0.498108 10.0001C0.498108 7.95306 4.75231 6.29346 10.0001 6.29346C15.2479 6.29346 19.5021 7.95346 19.5021 10.0003C19.5021 12.0471 15.2481 13.7063 10.0001 13.7063C4.75211 13.7063 0.498108 12.0469 0.498108 10.0001Z" stroke="#006891" stroke-width="1.40509" stroke-miterlimit="3.8636"/>
<path fill-rule="evenodd" clip-rule="evenodd" d="M3.98041 11.802L4.96661 8.12061H6.52321V10.2858H6.53341L7.58941 8.12061H9.17061L8.18441 11.802H7.15661L7.78881 9.44061H7.77861L6.52321 11.802H5.70021V9.44061H5.68341L5.05121 11.802H3.98041Z" fill="white"/>
<path fill-rule="evenodd" clip-rule="evenodd" d="M9.44885 11.8743L9.58885 11.3511H10.7233L10.5831 11.8743H9.44885Z" fill="#EE4034"/>
<path fill-rule="evenodd" clip-rule="evenodd" d="M9.62823 11.2046L10.202 9.06421H9.17084L9.42384 8.12061H12.6204L12.3676 9.06421H11.3364L10.7628 11.204L9.62823 11.2046Z" fill="#FFC325"/>
<path fill-rule="evenodd" clip-rule="evenodd" d="M11.8873 11.802L12.8729 8.12061H13.9869L14.4895 10.0904H14.4993L15.0269 8.12061H16.0567L15.0709 11.802H14.0111L13.4653 9.79141H13.4555L12.9171 11.802H11.8873Z" fill="white"/>
</g>
<defs>
<clipPath id="clip0">
<rect width="20" height="20" rx="5" fill="white"/>
</clipPath>
</defs>
</svg>
