<svg width="16" height="16" viewBox="0 0 16 16" fill="none" xmlns="http://www.w3.org/2000/svg">
<path d="M13.5547 0.382812C12.6746 0.382812 11.9436 1.03301 11.8165 1.87828L11.282 2.41277C10.3518 3.34305 8.98176 3.89844 7.61719 3.89844H4.10156C3.3377 3.89844 2.68641 4.38832 2.44453 5.07031H2.34375C1.05141 5.07031 0 6.12172 0 7.41406C0 8.70641 1.05141 9.75781 2.34375 9.75781H2.44453C2.62137 10.2564 3.01703 10.6521 3.51562 10.8289V13.8594C3.51562 14.8286 4.30422 15.6172 5.27348 15.6172C6.2427 15.6172 7.03125 14.8286 7.03125 13.8594V10.9297H7.61719C8.98172 10.9297 10.3517 11.4851 11.282 12.4154L11.8165 12.9498C11.9436 13.7951 12.6746 14.4453 13.5547 14.4453C14.5239 14.4453 15.3125 13.6568 15.3125 12.6875V2.14062C15.3125 1.17137 14.5239 0.382812 13.5547 0.382812ZM2.34375 8.58594C1.69758 8.58594 1.17188 8.06023 1.17188 7.41406C1.17188 6.76789 1.69758 6.24219 2.34375 6.24219V8.58594ZM5.85938 13.8594C5.85938 14.1825 5.59652 14.4453 5.27344 14.4453C4.95035 14.4453 4.6875 14.1825 4.6875 13.8594V10.9297H5.85938V13.8594ZM7.03125 9.75781H4.10156C3.77848 9.75781 3.51562 9.49496 3.51562 9.17188V5.65625C3.51562 5.33316 3.77848 5.07031 4.10156 5.07031H7.03125V9.75781ZM11.7969 11.2948C10.807 10.438 9.5343 9.90574 8.19922 9.78437L8.19926 5.04371C9.5343 4.92238 10.807 4.39008 11.7969 3.53332V11.2948ZM14.1406 12.6875C14.1406 13.0106 13.8778 13.2734 13.5547 13.2734H13.5547C13.2316 13.2734 12.9688 13.0106 12.9688 12.6875V2.14062C12.9688 1.81754 13.2316 1.55469 13.5547 1.55469C13.8778 1.55469 14.1406 1.81754 14.1406 2.14062V12.6875Z" fill="#142850" fill-opacity="0.69"/>
</svg>
