<svg width="20" height="20" viewBox="0 0 20 20" fill="none" xmlns="http://www.w3.org/2000/svg">
<path d="M19.2188 0H0.78125C0.349766 0 0 0.349766 0 0.78125V16.0938C0 16.5252 0.349766 16.875 0.78125 16.875H6.55141L9.44758 19.7712C9.75266 20.0763 10.2473 20.0763 10.5525 19.7712L13.4486 16.875H19.2188C19.6502 16.875 20 16.5252 20 16.0938V0.78125C20 0.349766 19.6502 0 19.2188 0ZM18.4375 15.3125H13.125C12.9178 15.3125 12.7191 15.3948 12.5725 15.5413L10 18.1139L7.42746 15.5413C7.28094 15.3948 7.08223 15.3125 6.875 15.3125H1.5625V1.5625H18.4375V15.3125ZM7.02481 9.83313L6.59004 12.368C6.48078 13.0049 7.15125 13.4924 7.72359 13.1915L10 11.9947L12.2764 13.1915C12.8463 13.4912 13.5197 13.0078 13.41 12.368L12.9752 9.83313L14.8169 8.03793C15.2797 7.58684 15.0238 6.79836 14.3839 6.70535L11.8388 6.33551L10.7005 4.02922C10.4145 3.44965 9.58555 3.44941 9.29941 4.02922L8.16117 6.33551L5.61605 6.70535C4.97645 6.79828 4.72 7.58656 5.18309 8.03793L7.02481 9.83313ZM8.79234 7.8227C9.04684 7.78574 9.2668 7.6259 9.38059 7.39535L10 6.14023L10.6194 7.39531C10.7332 7.6259 10.9532 7.7857 11.2077 7.82266L12.5927 8.02391L11.5905 9.00086C11.4063 9.18035 11.3223 9.43895 11.3658 9.69238L11.6024 11.0718L10.3636 10.4205C10.136 10.3009 9.86406 10.3008 9.63648 10.4205L8.39766 11.0718L8.63426 9.69238C8.67773 9.43895 8.59371 9.18035 8.40957 9.00086L7.40734 8.02391L8.79234 7.8227Z" fill="#142850" fill-opacity="0.69"/>
</svg>
