<svg width="45" height="45" viewBox="0 0 45 45" fill="none" xmlns="http://www.w3.org/2000/svg">
<g clip-path="url(#clip0)">
<path d="M22.227 21.6531C25.1413 21.6531 27.6644 20.6079 29.7266 18.5457C31.7882 16.4838 32.8337 13.961 32.8337 11.0464C32.8337 8.13286 31.7885 5.60971 29.7263 3.54717C27.6641 1.48564 25.1409 0.44043 22.227 0.44043C19.3125 0.44043 16.7896 1.48564 14.7278 3.54751C12.6659 5.60937 11.6204 8.13252 11.6204 11.0464C11.6204 13.961 12.6659 16.4841 14.7278 18.546C16.7903 20.6075 19.3135 21.6531 22.227 21.6531ZM16.5528 5.37217C18.1349 3.79008 19.9908 3.02104 22.227 3.02104C24.4629 3.02104 26.3192 3.79008 27.9016 5.37217C29.4837 6.9546 30.2531 8.81085 30.2531 11.0464C30.2531 13.2826 29.4837 15.1386 27.9016 16.721C26.3192 18.3034 24.4629 19.0725 22.227 19.0725C19.9915 19.0725 18.1356 18.3031 16.5528 16.721C14.9704 15.1389 14.201 13.2826 14.201 11.0464C14.201 8.81085 14.9704 6.9546 16.5528 5.37217Z" fill="#C4C4C4"/>
<path d="M40.7863 34.3025C40.7268 33.4444 40.6065 32.5084 40.4294 31.52C40.2507 30.5241 40.0206 29.5827 39.7451 28.7223C39.4602 27.833 39.0735 26.9548 38.5947 26.1132C38.0985 25.2396 37.5152 24.479 36.8607 23.8531C36.1764 23.1983 35.3384 22.6718 34.3695 22.2878C33.4039 21.9058 32.3338 21.7123 31.1892 21.7123C30.7396 21.7123 30.3049 21.8967 29.4653 22.4433C28.9486 22.7803 28.3441 23.17 27.6695 23.6011C27.0926 23.9686 26.3112 24.313 25.3459 24.6248C24.4042 24.9295 23.448 25.0841 22.5039 25.0841C21.5605 25.0841 20.6043 24.9295 19.6619 24.6248C18.6977 24.3134 17.9159 23.969 17.34 23.6014C16.6718 23.1744 16.067 22.7847 15.5426 22.443C14.7036 21.8964 14.2689 21.7119 13.8193 21.7119C12.6744 21.7119 11.6046 21.9058 10.6394 22.2881C9.67109 22.6715 8.83283 23.1979 8.14778 23.8534C7.49331 24.4797 6.91006 25.24 6.41416 26.1132C5.93607 26.9548 5.54903 27.8327 5.26412 28.7227C4.98896 29.5831 4.75882 30.5241 4.58008 31.52C4.40269 32.5071 4.28275 33.4434 4.22328 34.3035C4.16482 35.1444 4.13525 36.0196 4.13525 36.9039C4.13525 39.2027 4.866 41.0636 6.30699 42.4361C7.73017 43.7904 9.61296 44.4771 11.9033 44.4771H33.1072C35.3969 44.4771 37.2797 43.7904 38.7032 42.4361C40.1445 41.0646 40.8753 39.203 40.8753 36.9036C40.8749 36.0163 40.845 35.1411 40.7863 34.3025ZM36.9239 40.5664C35.9835 41.4614 34.735 41.8965 33.1069 41.8965H11.9033C10.2748 41.8965 9.02635 41.4614 8.0863 40.5667C7.16405 39.6888 6.71587 38.4904 6.71587 36.9039C6.71587 36.0788 6.74308 35.264 6.79751 34.4819C6.85059 33.7145 6.95911 32.8716 7.12004 31.9759C7.27896 31.0913 7.48121 30.2611 7.72177 29.5095C7.95258 28.7888 8.26739 28.0752 8.65779 27.3878C9.03039 26.7327 9.45909 26.1706 9.93214 25.7177C10.3746 25.2941 10.9323 24.9473 11.5895 24.6873C12.1973 24.4467 12.8803 24.315 13.6218 24.2952C13.7122 24.3433 13.8731 24.435 14.1338 24.605C14.6643 24.9507 15.2758 25.3451 15.9518 25.7768C16.7138 26.2627 17.6955 26.7014 18.8684 27.0801C20.0674 27.4678 21.2904 27.6647 22.5043 27.6647C23.7181 27.6647 24.9414 27.4678 26.1398 27.0804C27.3137 26.7011 28.2951 26.2627 29.0581 25.7762C29.7499 25.334 30.3442 24.951 30.8747 24.605C31.1354 24.4353 31.2963 24.3433 31.3867 24.2952C32.1286 24.315 32.8116 24.4467 33.4197 24.6873C34.0765 24.9473 34.6342 25.2944 35.0767 25.7177C35.5498 26.1703 35.9785 26.7324 36.3511 27.3882C36.7418 28.0752 37.0569 28.7892 37.2874 29.5092C37.5283 30.2617 37.7309 31.0916 37.8895 31.9755C38.0501 32.8729 38.1589 33.7162 38.212 34.4822V34.4829C38.2668 35.262 38.2943 36.0764 38.2947 36.9039C38.2943 38.4907 37.8461 39.6888 36.9239 40.5664Z" fill="#C4C4C4"/>
</g>
<defs>
<clipPath id="clip0">
<rect x="0.522949" y="0.44043" width="44.0367" height="44.0367" fill="white"/>
</clipPath>
</defs>
</svg>
