<svg width="321" height="193" viewBox="0 0 321 193" fill="none" xmlns="http://www.w3.org/2000/svg">
<path d="M20.5737 138.384L18.6896 130.953C15.3489 129.537 11.9309 128.311 8.452 127.28L8.21411 130.734L7.24947 126.929C2.93508 125.697 0 125.154 0 125.154C0 125.154 3.96461 140.231 12.2801 151.756L21.9695 153.458L14.4421 154.544C15.4885 155.803 16.6131 156.994 17.8092 158.112C29.9059 169.34 43.3793 174.492 47.903 169.619C52.4266 164.745 46.2874 151.692 34.1907 140.464C30.4406 136.983 25.7297 134.189 21.0141 131.991L20.5737 138.384Z" fill="#E5E5E5"/>
<path d="M38.493 130.314L40.7213 122.978C38.5933 120.039 36.3012 117.223 33.856 114.542L31.8672 117.376L33.0081 113.62C29.9516 110.335 27.7195 108.354 27.7195 108.354C27.7195 108.354 23.3205 123.309 24.4812 137.474L31.8959 143.939L24.8911 140.977C25.1363 142.596 25.4829 144.197 25.9291 145.772C30.4805 161.637 39.3515 173.012 45.743 171.178C52.1346 169.344 53.6264 154.997 49.075 139.132C47.664 134.214 45.0751 129.388 42.1748 125.068L38.493 130.314Z" fill="#E5E5E5"/>
<path d="M313.751 172.282H0.0283203V173.074H313.751V172.282Z" fill="#3F3D56"/>
<path d="M49.5943 90.306C49.5943 90.306 47.1512 119.682 46.6266 125.976C46.2669 129.922 45.385 133.803 44.0038 137.517C44.0038 137.517 42.9547 139.615 42.9547 141.713V168.465C42.9547 168.465 40.8565 168.465 41.3811 170.563C41.9056 172.662 42.4302 176.334 42.4302 176.334H50.2985C50.2985 176.334 49.7739 174.76 51.3476 174.235C52.9213 173.711 51.3476 169.514 51.3476 169.514L59.7405 138.041L72.3298 111.813C72.3298 111.813 79.6736 135.418 81.2473 138.041C81.2473 138.041 87.0174 167.416 88.0665 170.039C89.1156 172.662 89.6402 172.662 89.1156 173.711C88.591 174.76 88.591 175.809 89.1156 176.334C89.6402 176.858 99.6067 176.334 99.6067 176.334L96.9839 139.09L92.2629 94.5029L68.1334 87.1592L49.5943 90.306Z" fill="#2F2E41"/>
<path d="M48.2005 172.137C48.2005 172.137 45.5777 162.695 41.3812 170.039C37.1848 177.382 37.1848 180.005 37.1848 180.005C37.1848 180.005 30.3656 189.972 39.8076 188.923C49.2496 187.874 47.1514 183.153 47.1514 183.153C47.1514 183.153 50.8232 181.054 50.8232 179.481C50.8232 177.907 48.2005 172.137 48.2005 172.137Z" fill="#2F2E41"/>
<path d="M90.6892 171.088C90.6892 171.088 93.312 161.646 97.5084 168.99C101.705 176.334 101.705 178.956 101.705 178.956C101.705 178.956 108.524 188.923 99.0821 187.874C89.6401 186.825 91.7383 182.104 91.7383 182.104C91.7383 182.104 88.0664 180.006 88.0664 178.432C88.0664 176.858 90.6892 171.088 90.6892 171.088Z" fill="#2F2E41"/>
<path d="M66.0353 19.4912C66.0353 19.4912 67.0845 26.3104 63.9371 27.8841C60.7898 29.4578 70.7564 35.2279 73.3791 35.2279C76.0019 35.2279 80.7229 29.9823 80.7229 29.9823C80.7229 29.9823 78.1001 22.114 78.6247 20.5403L66.0353 19.4912Z" fill="#A0616A"/>
<path d="M71.8052 24.7364C77.889 24.7364 82.8209 19.8045 82.8209 13.7207C82.8209 7.63696 77.889 2.70508 71.8052 2.70508C65.7214 2.70508 60.7896 7.63696 60.7896 13.7207C60.7896 19.8045 65.7214 24.7364 71.8052 24.7364Z" fill="#A0616A"/>
<path d="M93.3119 36.2768L80.1984 28.3318C80.1984 28.3318 72.7372 36.8014 64.6651 27.3594L50.8229 31.0313L52.9211 66.701C52.9211 66.701 49.7738 80.864 50.8229 83.4868C51.872 86.1096 48.2001 87.1587 49.2492 87.6832C50.2983 88.2078 49.2492 91.8797 49.2492 91.8797C49.2492 91.8797 69.7069 102.371 92.2627 94.5025L90.1645 87.6832C90.4501 86.7918 90.5036 85.8423 90.3201 84.9244C90.1365 84.0066 89.7219 83.1507 89.1154 82.4377C89.1154 82.4377 91.2136 79.2903 88.5909 76.6676C88.5909 76.6676 89.64 71.9466 87.0172 69.8484L86.4926 62.5046L88.0663 58.8327L93.3119 36.2768Z" fill="#CFCCE0"/>
<path d="M66.168 8.60626C66.168 8.60626 64.8547 11.4484 70.1079 10.3115C70.1079 10.3115 72.0778 11.4484 72.0778 9.74311C72.0778 9.74311 74.7044 12.5852 75.361 10.88C76.0177 9.17468 77.331 11.4484 77.331 11.4484L78.6443 8.60626L79.9576 10.3115H84.554C84.554 10.3115 85.8673 -1.05693 70.1078 0.0799146C54.3484 1.21676 62.1012 19.229 62.1012 19.229C62.1012 19.229 62.2281 15.9958 63.5414 17.701C64.8547 19.4063 66.168 8.60626 66.168 8.60626Z" fill="#2F2E41"/>
<path d="M98.0332 57.2588L98.5578 68.2745C98.5578 68.2745 100.656 88.7321 96.4596 97.6495V102.371C96.4596 102.371 95.4105 114.435 90.1649 113.911C84.9194 113.386 91.7386 96.6004 91.7386 96.6004L90.6895 73.52L89.6404 60.4061L98.0332 57.2588Z" fill="#A0616A"/>
<path d="M87.5418 36.8013L92.7745 35.9512C96.5439 39.5729 99.1116 44.2637 100.131 49.3907C101.705 57.7835 102.229 59.3572 102.229 59.3572L89.64 62.5045L82.8208 49.3907L87.5418 36.8013Z" fill="#CFCCE0"/>
<path d="M147.792 30.8154H65.0117V71.9366H147.792V30.8154Z" fill="white"/>
<path d="M74.0506 33.2879C71.9239 32.009 69.3596 32.1067 68.3848 32.2044C68.756 33.1108 69.8699 35.4226 71.9966 36.7021C74.1285 37.9843 76.6894 37.8837 77.6628 37.7867C77.2917 36.8806 76.1776 34.5678 74.0506 33.2879Z" fill="#00A8CC"/>
<path d="M84.0438 58.666H70.7518C70.3588 58.6656 69.9695 58.7426 69.6063 58.8927C69.2431 59.0428 68.913 59.2631 68.6349 59.5408C68.3569 59.8186 68.1363 60.1484 67.9858 60.5115C67.8353 60.8745 67.7578 61.2637 67.7578 61.6567C67.7578 62.0498 67.8353 62.4389 67.9858 62.802C68.1363 63.165 68.3569 63.4949 68.6349 63.7726C68.913 64.0504 69.2431 64.2706 69.6063 64.4207C69.9695 64.5708 70.3588 64.6479 70.7518 64.6474H84.0438C84.4368 64.6479 84.8261 64.5708 85.1893 64.4207C85.5525 64.2706 85.8826 64.0504 86.1607 63.7726C86.4387 63.4949 86.6593 63.165 86.8098 62.802C86.9603 62.4389 87.0378 62.0498 87.0378 61.6567C87.0378 61.2637 86.9603 60.8745 86.8098 60.5115C86.6593 60.1484 86.4387 59.8186 86.1607 59.5408C85.8826 59.2631 85.5525 59.0428 85.1893 58.8927C84.8261 58.7426 84.4368 58.6656 84.0438 58.666Z" fill="#00A8CC"/>
<path d="M144.235 27.0977H69.7104C68.8435 27.0977 67.9851 27.2684 67.1841 27.6002C66.3832 27.9319 65.6554 28.4182 65.0424 29.0312C64.4294 29.6442 63.9432 30.372 63.6114 31.1729C63.2796 31.9738 63.1089 32.8323 63.1089 33.6992V70.009C63.1089 71.7598 63.8044 73.439 65.0424 74.677C66.2805 75.915 67.9596 76.6106 69.7104 76.6106H144.235C145.986 76.6106 147.665 75.915 148.903 74.677C150.141 73.439 150.836 71.7598 150.836 70.009V33.6992C150.836 32.8323 150.666 31.9738 150.334 31.1729C150.002 30.372 149.516 29.6442 148.903 29.0312C148.29 28.4182 147.562 27.9319 146.761 27.6002C145.96 27.2684 145.102 27.0977 144.235 27.0977ZM67.8666 31.6009C68.0137 31.5743 71.5034 30.9805 74.393 32.7192C77.2825 34.4576 78.3926 37.8192 78.4384 37.9614L78.5552 38.3239L78.1802 38.3904C77.6453 38.4739 77.1044 38.5136 76.563 38.5092C74.8455 38.542 73.1504 38.1148 71.6536 37.2718C68.7642 35.5337 67.6542 32.1721 67.6084 32.0299L67.4916 31.6674L67.8666 31.6009ZM84.0439 65.3123H70.7518C69.7824 65.3123 68.8526 64.9272 68.1671 64.2417C67.4816 63.5562 67.0965 62.6264 67.0965 61.657C67.0965 60.6875 67.4816 59.7578 68.1671 59.0723C68.8526 58.3868 69.7824 58.0017 70.7518 58.0017H84.0439C85.0133 58.0017 85.9431 58.3868 86.6286 59.0723C87.3141 59.7578 87.6992 60.6875 87.6992 61.657C87.6992 62.6264 87.3141 63.5562 86.6286 64.2417C85.9431 64.9272 85.0133 65.3123 84.0439 65.3123ZM144.523 64.6477C144.52 65.7043 144.099 66.7168 143.351 67.464C142.604 68.2111 141.592 68.6322 140.535 68.6353H130.566C129.509 68.6322 128.497 68.2111 127.75 67.464C127.003 66.7168 126.582 65.7043 126.578 64.6477V58.6663C126.582 57.6097 127.003 56.5972 127.75 55.85C128.497 55.1029 129.509 54.6818 130.566 54.6787H140.535C141.592 54.6818 142.604 55.1029 143.351 55.85C144.099 56.5972 144.52 57.6097 144.523 58.6663V64.6477Z" fill="#0485A5"/>
<path d="M133.723 63.4844H129.403C129.095 63.4844 128.799 63.6069 128.581 63.825C128.363 64.0431 128.24 64.339 128.24 64.6474C128.24 64.9559 128.363 65.2517 128.581 65.4698C128.799 65.688 129.095 65.8105 129.403 65.8105H133.723C134.032 65.8105 134.327 65.688 134.546 65.4698C134.764 65.2517 134.886 64.9559 134.886 64.6474C134.886 64.339 134.764 64.0431 134.546 63.825C134.327 63.6069 134.032 63.4844 133.723 63.4844ZM133.723 65.1459H129.403C129.338 65.1461 129.273 65.1333 129.212 65.1083C129.152 65.0833 129.096 65.0467 129.05 65.0004C129.004 64.9541 128.967 64.899 128.942 64.8385C128.916 64.7779 128.903 64.713 128.903 64.6474C128.903 64.5819 128.916 64.5169 128.942 64.4564C128.967 64.3958 129.004 64.3408 129.05 64.2945C129.096 64.2482 129.152 64.2115 129.212 64.1865C129.273 64.1616 129.338 64.1488 129.403 64.149H133.723C133.855 64.1493 133.982 64.202 134.075 64.2954C134.168 64.3889 134.22 64.5155 134.22 64.6474C134.22 64.7794 134.168 64.906 134.075 64.9994C133.982 65.0929 133.855 65.1455 133.723 65.1459Z" fill="#142850"/>
<path d="M141.698 63.4844H137.378C137.07 63.4844 136.774 63.6069 136.556 63.825C136.338 64.0431 136.215 64.339 136.215 64.6474C136.215 64.9559 136.338 65.2517 136.556 65.4698C136.774 65.688 137.07 65.8105 137.378 65.8105H141.698C142.007 65.8105 142.303 65.688 142.521 65.4698C142.739 65.2517 142.861 64.9559 142.861 64.6474C142.861 64.339 142.739 64.0431 142.521 63.825C142.303 63.6069 142.007 63.4844 141.698 63.4844ZM141.698 65.1459H137.378C137.313 65.1461 137.248 65.1333 137.187 65.1083C137.127 65.0833 137.071 65.0467 137.025 65.0004C136.979 64.9541 136.942 64.899 136.917 64.8385C136.892 64.7779 136.879 64.713 136.879 64.6474C136.879 64.5819 136.892 64.5169 136.917 64.4564C136.942 64.3958 136.979 64.3408 137.025 64.2945C137.071 64.2482 137.127 64.2115 137.187 64.1865C137.248 64.1616 137.313 64.1488 137.378 64.149H141.698C141.83 64.1493 141.957 64.202 142.05 64.2954C142.143 64.3889 142.195 64.5155 142.195 64.6474C142.195 64.7794 142.143 64.906 142.05 64.9994C141.957 65.0929 141.83 65.1455 141.698 65.1459Z" fill="#142850"/>
<path d="M133.723 60.4932H129.403C129.095 60.4932 128.799 60.6157 128.581 60.8338C128.363 61.0519 128.24 61.3478 128.24 61.6562C128.24 61.9647 128.363 62.2605 128.581 62.4786C128.799 62.6967 129.095 62.8193 129.403 62.8193H133.723C134.032 62.8193 134.327 62.6967 134.546 62.4786C134.764 62.2605 134.886 61.9647 134.886 61.6562C134.886 61.3478 134.764 61.0519 134.546 60.8338C134.327 60.6157 134.032 60.4932 133.723 60.4932ZM133.723 62.1547H129.403C129.338 62.1547 129.273 62.1418 129.213 62.1167C129.152 62.0917 129.097 62.055 129.051 62.0087C129.005 61.9624 128.968 61.9074 128.943 61.847C128.918 61.7865 128.905 61.7217 128.905 61.6562C128.905 61.5908 128.918 61.5259 128.943 61.4655C128.968 61.405 129.005 61.3501 129.051 61.3038C129.097 61.2575 129.152 61.2208 129.213 61.1957C129.273 61.1707 129.338 61.1578 129.403 61.1578H133.723C133.789 61.1578 133.853 61.1707 133.914 61.1957C133.974 61.2208 134.029 61.2575 134.076 61.3038C134.122 61.3501 134.159 61.405 134.184 61.4655C134.209 61.5259 134.222 61.5908 134.222 61.6562C134.222 61.7217 134.209 61.7865 134.184 61.847C134.159 61.9074 134.122 61.9624 134.076 62.0087C134.029 62.055 133.974 62.0917 133.914 62.1167C133.853 62.1418 133.789 62.1547 133.723 62.1547Z" fill="#142850"/>
<path d="M141.698 60.4932H137.378C137.07 60.4932 136.774 60.6157 136.556 60.8338C136.338 61.0519 136.215 61.3478 136.215 61.6562C136.215 61.9647 136.338 62.2605 136.556 62.4786C136.774 62.6967 137.07 62.8193 137.378 62.8193H141.698C142.007 62.8193 142.303 62.6967 142.521 62.4786C142.739 62.2605 142.861 61.9647 142.861 61.6562C142.861 61.3478 142.739 61.0519 142.521 60.8338C142.303 60.6157 142.007 60.4932 141.698 60.4932ZM141.698 62.1547H137.378C137.313 62.1547 137.248 62.1418 137.188 62.1167C137.127 62.0917 137.072 62.055 137.026 62.0087C136.98 61.9624 136.943 61.9074 136.918 61.847C136.893 61.7865 136.88 61.7217 136.88 61.6562C136.88 61.5908 136.893 61.5259 136.918 61.4655C136.943 61.405 136.98 61.3501 137.026 61.3038C137.072 61.2575 137.127 61.2208 137.188 61.1957C137.248 61.1707 137.313 61.1578 137.378 61.1578H141.698C141.764 61.1578 141.829 61.1707 141.889 61.1957C141.95 61.2208 142.004 61.2575 142.051 61.3038C142.097 61.3501 142.134 61.405 142.159 61.4655C142.184 61.5259 142.197 61.5908 142.197 61.6562C142.197 61.7217 142.184 61.7865 142.159 61.847C142.134 61.9074 142.097 61.9624 142.051 62.0087C142.004 62.055 141.95 62.0917 141.889 62.1167C141.829 62.1418 141.764 62.1547 141.698 62.1547Z" fill="#142850"/>
<path d="M133.723 57.5029H129.403C129.095 57.5029 128.799 57.6255 128.581 57.8436C128.363 58.0617 128.24 58.3575 128.24 58.666C128.24 58.9745 128.363 59.2703 128.581 59.4884C128.799 59.7065 129.095 59.829 129.403 59.829H133.723C134.032 59.829 134.327 59.7065 134.546 59.4884C134.764 59.2703 134.886 58.9745 134.886 58.666C134.886 58.3575 134.764 58.0617 134.546 57.8436C134.327 57.6255 134.032 57.5029 133.723 57.5029ZM133.723 59.1644H129.403C129.338 59.1646 129.273 59.1519 129.212 59.1269C129.152 59.1019 129.096 59.0652 129.05 59.0189C129.004 58.9726 128.967 58.9176 128.942 58.857C128.916 58.7965 128.903 58.7316 128.903 58.666C128.903 58.6004 128.916 58.5355 128.942 58.4749C128.967 58.4144 129.004 58.3594 129.05 58.3131C129.096 58.2668 129.152 58.2301 129.212 58.2051C129.273 58.1801 129.338 58.1674 129.403 58.1675H133.723C133.855 58.1679 133.982 58.2206 134.075 58.314C134.168 58.4074 134.22 58.534 134.22 58.666C134.22 58.798 134.168 58.9245 134.075 59.018C133.982 59.1114 133.855 59.1641 133.723 59.1644Z" fill="#142850"/>
<path d="M141.698 57.5029H137.378C137.07 57.5029 136.774 57.6255 136.556 57.8436C136.338 58.0617 136.215 58.3575 136.215 58.666C136.215 58.9745 136.338 59.2703 136.556 59.4884C136.774 59.7065 137.07 59.829 137.378 59.829H141.698C142.007 59.829 142.303 59.7065 142.521 59.4884C142.739 59.2703 142.861 58.9745 142.861 58.666C142.861 58.3575 142.739 58.0617 142.521 57.8436C142.303 57.6255 142.007 57.5029 141.698 57.5029ZM141.698 59.1644H137.378C137.313 59.1646 137.248 59.1519 137.187 59.1269C137.127 59.1019 137.071 59.0652 137.025 59.0189C136.979 58.9726 136.942 58.9176 136.917 58.857C136.892 58.7965 136.879 58.7316 136.879 58.666C136.879 58.6004 136.892 58.5355 136.917 58.4749C136.942 58.4144 136.979 58.3594 137.025 58.3131C137.071 58.2668 137.127 58.2301 137.187 58.2051C137.248 58.1801 137.313 58.1674 137.378 58.1675H141.698C141.83 58.1679 141.957 58.2206 142.05 58.314C142.143 58.4074 142.195 58.534 142.195 58.666C142.195 58.798 142.143 58.9245 142.05 59.018C141.957 59.1114 141.83 59.1641 141.698 59.1644Z" fill="#142850"/>
<path d="M42.9545 50.9642C42.9545 50.9642 38.2335 70.8973 44.0036 70.8973C49.7738 70.8973 63.4122 48.3414 63.4122 48.3414C63.4122 48.3414 77.5752 40.9976 71.8051 38.3748C66.035 35.7521 58.6912 42.5713 58.6912 42.5713L50.2175 54.3358L49.7737 48.3414L42.9545 50.9642Z" fill="#A0616A"/>
<path d="M53.9703 34.1786L50.823 31.0312C50.823 31.0312 44.5283 34.7031 44.0038 38.375C43.4792 42.0469 40.8564 53.5871 40.8564 53.5871L50.5607 54.374L53.7081 49.653L53.9703 34.1786Z" fill="#CFCCE0"/>
<path d="M193.065 26.7173C192.67 25.5505 187.715 21.5841 190.751 20.9174L193.241 24.2378L204.69 12.7891L205.842 13.9405L193.065 26.7173Z" fill="#00A8CC"/>
<path d="M193.065 65.647C192.67 64.4802 187.715 60.5137 190.751 59.8471L193.241 63.1675L204.69 51.7188L205.842 52.8702L193.065 65.647Z" fill="#00A8CC"/>
<path d="M201.989 70.8294H184.324V52.8115H196.336V53.5181H185.031V70.1228H201.282V61.9971H201.989V70.8294Z" fill="#3F3D56"/>
<path d="M201.989 30.554H184.324V12.5361H196.336V13.2427H185.031V29.8474H201.282V21.7217H201.989V30.554Z" fill="#3F3D56"/>
<path d="M251.67 142.469C251.67 161.549 240.327 168.211 226.335 168.211C212.343 168.211 201 161.549 201 142.469C201 123.389 226.335 99.1162 226.335 99.1162C226.335 99.1162 251.67 123.389 251.67 142.469Z" fill="#E3E3E3"/>
<path d="M225.412 165.292L225.671 149.324L236.47 129.569L225.712 146.819L225.829 139.639L233.271 125.347L225.86 137.739V137.739L226.07 124.826L234.039 113.447L226.102 122.795L226.234 99.1162L225.41 130.463L225.478 129.169L217.375 116.768L225.347 131.652L224.593 146.074L224.57 145.691L215.229 132.64L224.542 147.044L224.448 148.847L224.431 148.874L224.438 149.022L222.523 185.613H225.082L225.389 166.713L234.679 152.345L225.412 165.292Z" fill="#3F3D56"/>
<path d="M285.678 65.9868C285.678 65.9868 273.338 58.5869 270.986 58.5392C268.634 58.4916 255.175 52.6981 254.104 51.9523C253.033 51.2066 240.53 42.8983 238.91 46.9383C237.289 50.9783 250.853 56.0498 250.853 56.0498C250.853 56.0498 268.84 66.1889 271.809 67.0635C274.778 67.9382 281.39 72.145 281.39 72.145L285.678 65.9868Z" fill="#A0616A"/>
<path opacity="0.1" d="M285.681 65.9797C285.681 65.9797 273.338 58.5835 270.986 58.5365C268.634 58.4896 255.173 52.7002 254.102 51.9548C253.031 51.2094 240.526 42.9048 238.906 46.9453C237.287 50.9858 250.853 56.0533 250.853 56.0533C250.853 56.0533 268.842 66.1868 271.812 67.0606C274.781 67.9344 281.394 72.1391 281.394 72.1391L285.681 65.9797Z" fill="black"/>
<path d="M277.607 109.43C277.607 109.43 276.955 119.871 275.976 121.828C274.997 123.786 275.323 127.375 275.65 127.701C275.976 128.027 289.353 132.921 292.615 135.857C295.878 138.794 305.666 144.34 306.645 144.34C307.623 144.34 311.865 159.348 311.865 159.348L296.204 147.603C296.204 147.603 290.331 144.014 288.7 144.014C287.069 144.014 268.472 136.184 266.514 135.857C264.557 135.531 269.451 107.146 269.451 107.146L277.607 109.43Z" fill="#A0616A"/>
<path opacity="0.1" d="M277.607 109.43C277.607 109.43 276.955 119.871 275.976 121.828C274.997 123.786 275.323 127.375 275.65 127.701C275.976 128.027 289.353 132.921 292.615 135.857C295.878 138.794 305.666 144.34 306.645 144.34C307.623 144.34 311.865 159.348 311.865 159.348L296.204 147.603C296.204 147.603 290.331 144.014 288.7 144.014C287.069 144.014 268.472 136.184 266.514 135.857C264.557 135.531 269.451 107.146 269.451 107.146L277.607 109.43Z" fill="black"/>
<path d="M258.358 109.431L254.769 132.269L259.01 145.319C259.01 145.319 262.599 161.632 263.252 164.242C263.904 166.852 263.252 188.712 263.252 188.712C263.252 188.712 269.125 188.386 269.451 188.059C269.777 187.733 274.345 172.399 274.345 172.399C274.345 172.399 270.756 170.441 271.408 163.916C272.061 157.391 269.405 139.259 268.286 136.417C267.167 133.574 270.43 117.913 275.65 111.714C280.87 105.515 258.358 109.431 258.358 109.431Z" fill="#A0616A"/>
<path d="M272.387 172.725C272.387 172.725 269.777 186.102 262.599 187.733C262.599 187.733 257.379 190.344 258.358 191.649C259.337 192.954 268.472 192.301 269.451 191.649C270.43 190.996 274.019 181.534 274.019 181.534L275.976 188.712L279.891 186.428L278.26 176.967C278.26 176.967 275.324 168.81 272.387 172.725Z" fill="#2F2E41"/>
<path d="M262.925 73.8683V89.5289C262.925 89.5289 256.074 110.41 257.705 111.062C259.336 111.715 275.976 114.977 276.955 113.346C277.933 111.715 286.09 113.998 287.395 112.367C288.7 110.736 287.395 88.8763 286.416 86.2663C285.437 83.6562 284.459 73.2158 284.459 73.2158L262.925 73.8683Z" fill="#2F2E41"/>
<path d="M277.281 28.8436C283.047 28.8436 287.722 24.1693 287.722 18.4032C287.722 12.6372 283.047 7.96289 277.281 7.96289C271.515 7.96289 266.841 12.6372 266.841 18.4032C266.841 24.1693 271.515 28.8436 277.281 28.8436Z" fill="#A0616A"/>
<path d="M272.387 25.2552C272.387 25.2552 275.65 35.3693 272.061 36.6743C268.472 37.9794 275.976 43.5258 276.302 43.5258C276.629 43.5258 283.154 36.6743 283.154 36.6743L285.764 31.4541C285.764 31.4541 282.501 25.9077 284.133 22.3188C285.764 18.73 272.387 25.2552 272.387 25.2552Z" fill="#A0616A"/>
<path d="M285.764 29.8232C284.206 31.5427 282.454 33.0756 280.543 34.3909C277.607 36.3485 272.713 38.306 272.713 37.3272C272.713 36.3485 274.018 35.0434 272.713 35.0434C271.408 35.0434 267.819 37.9798 267.819 38.6323C267.819 39.2848 265.535 45.4838 263.578 46.4625C261.62 47.4413 259.663 53.9665 259.663 56.2504C259.663 58.5342 258.031 73.8685 261.294 74.8472C264.557 75.826 266.514 77.1311 268.798 76.1523C271.082 75.1735 272.387 73.8685 275.323 74.521C278.26 75.1735 282.827 73.5422 284.459 74.8472C286.09 76.1523 289.352 75.4998 290.005 74.521C290.657 73.5422 294.246 37.9798 292.941 37.3272C291.636 36.6747 288.7 33.4121 288.047 32.4333C287.349 31.5104 286.586 30.6382 285.764 29.8232Z" fill="#575A89"/>
<path d="M304.687 144.341C304.687 144.341 311.538 157.065 310.233 159.022C308.928 160.98 308.276 165.874 309.255 165.874C310.233 165.874 318.064 159.675 316.432 156.412C314.801 153.15 312.517 148.256 312.517 148.256L319.695 150.54L321 146.298L311.865 142.383C311.865 142.383 306.318 141.731 304.687 144.341Z" fill="#2F2E41"/>
<path d="M286.417 61.1436C286.417 61.1436 287.395 75.499 288.7 77.4566C290.005 79.4142 292.942 93.7696 292.942 95.0747C292.942 96.3797 293.268 111.388 297.509 110.409C301.751 109.43 298.162 95.4009 298.162 95.4009C298.162 95.4009 296.204 74.8465 295.226 71.9102C294.247 68.9738 293.921 61.1436 293.921 61.1436H286.417Z" fill="#A0616A"/>
<path d="M301.531 28.1325C299.414 24.9456 297.666 19.8198 295.78 15.3055C295.169 13.8424 294.61 12.3603 294.063 10.8719C292.961 7.87212 288.163 4 281.879 4C274.696 4 268.873 7.61455 268.873 10.6473C268.873 13.1546 272.855 15.2679 278.293 15.9254C276.382 20.19 275.231 24.9229 275.231 28.1325C275.231 35.395 281.119 32.3231 288.381 32.3231C295.644 32.3231 305.55 34.1818 301.531 28.1325Z" fill="#2F2E41"/>
<path d="M288.374 37.9797C288.374 37.9797 281.522 50.0513 281.849 54.9452C282.175 59.8391 280.544 64.7331 283.154 64.7331C285.764 64.7331 294.247 64.7331 294.899 63.428C295.552 62.123 295.225 46.7887 294.899 44.8311C294.573 42.8736 293.268 37.3271 293.268 37.3271L288.374 37.9797Z" fill="#575A89"/>
<path d="M248.449 27.7926H248.246V22.2233C248.246 21.8 248.163 21.3809 248.001 20.9898C247.839 20.5987 247.601 20.2434 247.302 19.9441C247.002 19.6448 246.647 19.4073 246.256 19.2454C245.865 19.0834 245.446 19 245.023 19H233.223C232.8 19 232.381 19.0834 231.99 19.2454C231.599 19.4073 231.243 19.6448 230.944 19.9441C230.645 20.2434 230.407 20.5987 230.245 20.9898C230.083 21.3809 230 21.8 230 22.2233V52.7767C230 53.2 230.083 53.6191 230.245 54.0102C230.407 54.4013 230.645 54.7566 230.944 55.0559C231.243 55.3552 231.599 55.5927 231.99 55.7546C232.381 55.9166 232.8 56 233.223 56H245.023C245.446 56 245.865 55.9166 246.256 55.7546C246.647 55.5927 247.002 55.3552 247.302 55.0559C247.601 54.7566 247.839 54.4013 248.001 54.0102C248.163 53.6191 248.246 53.2 248.246 52.7767V31.7569H248.449L248.449 27.7926Z" fill="#3F3D56"/>
<path d="M245.076 19.915H243.536C243.607 20.0887 243.634 20.2771 243.615 20.4637C243.596 20.6502 243.531 20.8292 243.426 20.9849C243.322 21.1405 243.18 21.2681 243.015 21.3562C242.849 21.4444 242.665 21.4906 242.477 21.4906H235.718C235.53 21.4906 235.345 21.4444 235.18 21.3562C235.014 21.2681 234.873 21.1405 234.768 20.9849C234.664 20.8292 234.599 20.6502 234.58 20.4637C234.561 20.2771 234.588 20.0887 234.659 19.915H233.22C232.904 19.915 232.591 19.9773 232.299 20.0983C232.007 20.2192 231.742 20.3965 231.518 20.6201C231.295 20.8436 231.117 21.109 230.996 21.401C230.875 21.6931 230.813 22.0061 230.813 22.3222V52.8307C230.813 53.1468 230.875 53.4598 230.996 53.7519C231.117 54.0439 231.295 54.3093 231.518 54.5328C231.742 54.7563 232.007 54.9336 232.299 55.0546C232.591 55.1756 232.904 55.2378 233.22 55.2378H245.076C245.392 55.2378 245.705 55.1756 245.997 55.0546C246.289 54.9336 246.555 54.7563 246.778 54.5328C247.002 54.3093 247.179 54.0439 247.3 53.7519C247.421 53.4598 247.483 53.1468 247.483 52.8307V22.3222C247.483 22.0061 247.421 21.6931 247.3 21.401C247.179 21.109 247.002 20.8436 246.778 20.6201C246.555 20.3966 246.289 20.2192 245.997 20.0983C245.705 19.9773 245.392 19.915 245.076 19.915ZM244.817 34.0681C244.817 34.2333 244.751 34.3917 244.634 34.5085C244.517 34.6253 244.359 34.6911 244.194 34.6916H241.18C241.015 34.6911 240.857 34.6253 240.74 34.5085C240.623 34.3917 240.557 34.2333 240.557 34.0681V33.9123C240.557 33.747 240.623 33.5887 240.74 33.4719C240.857 33.3551 241.015 33.2892 241.18 33.2888H244.194C244.359 33.2892 244.517 33.3551 244.634 33.4719C244.751 33.5887 244.817 33.747 244.817 33.9123V34.0681ZM245.155 31.3143C245.155 31.4796 245.089 31.6379 244.972 31.7547C244.855 31.8715 244.697 31.9374 244.532 31.9378H233.724C233.559 31.9374 233.401 31.8715 233.284 31.7547C233.167 31.6379 233.101 31.4796 233.101 31.3143V31.1585C233.101 30.9932 233.167 30.8349 233.284 30.7181C233.401 30.6013 233.559 30.5354 233.724 30.535H244.532C244.697 30.5354 244.855 30.6013 244.972 30.7181C245.089 30.8349 245.155 30.9932 245.155 31.1585V31.3143ZM245.155 28.5605C245.155 28.7258 245.089 28.8841 244.972 29.0009C244.855 29.1177 244.697 29.1836 244.532 29.184H233.724C233.559 29.1836 233.401 29.1177 233.284 29.0009C233.167 28.8841 233.101 28.7258 233.101 28.5605V28.4047C233.101 28.2395 233.167 28.0811 233.284 27.9643C233.401 27.8475 233.559 27.7817 233.724 27.7812H244.532C244.697 27.7817 244.855 27.8475 244.972 27.9643C245.089 28.0811 245.155 28.2395 245.155 28.4047V28.5605ZM245.155 25.8067C245.155 25.972 245.089 26.1303 244.972 26.2471C244.855 26.3639 244.697 26.4298 244.532 26.4303H233.724C233.559 26.4298 233.401 26.3639 233.284 26.2471C233.167 26.1303 233.101 25.972 233.101 25.8067V25.6509C233.101 25.4857 233.167 25.3274 233.284 25.2105C233.401 25.0937 233.559 25.0279 233.724 25.0274H244.532C244.697 25.0279 244.855 25.0937 244.972 25.2105C245.089 25.3274 245.155 25.4857 245.155 25.6509V25.8067Z" fill="#0485A5"/>
<path d="M234.01 31.6259C234.211 31.6259 234.374 31.463 234.374 31.2621C234.374 31.0613 234.211 30.8984 234.01 30.8984C233.809 30.8984 233.646 31.0613 233.646 31.2621C233.646 31.463 233.809 31.6259 234.01 31.6259Z" fill="#D0CDE1"/>
<path d="M235.206 31.6259C235.406 31.6259 235.569 31.463 235.569 31.2621C235.569 31.0613 235.406 30.8984 235.206 30.8984C235.005 30.8984 234.842 31.0613 234.842 31.2621C234.842 31.463 235.005 31.6259 235.206 31.6259Z" fill="#D0CDE1"/>
<path d="M236.4 31.6259C236.601 31.6259 236.764 31.463 236.764 31.2621C236.764 31.0613 236.601 30.8984 236.4 30.8984C236.199 30.8984 236.037 31.0613 236.037 31.2621C236.037 31.463 236.199 31.6259 236.4 31.6259Z" fill="#D0CDE1"/>
<path d="M237.595 31.6259C237.796 31.6259 237.959 31.463 237.959 31.2621C237.959 31.0613 237.796 30.8984 237.595 30.8984C237.394 30.8984 237.231 31.0613 237.231 31.2621C237.231 31.463 237.394 31.6259 237.595 31.6259Z" fill="#D0CDE1"/>
<path d="M241.492 34.3798C241.693 34.3798 241.856 34.2169 241.856 34.0161C241.856 33.8152 241.693 33.6523 241.492 33.6523C241.291 33.6523 241.128 33.8152 241.128 34.0161C241.128 34.2169 241.291 34.3798 241.492 34.3798Z" fill="#D0CDE1"/>
<path d="M242.687 34.3798C242.888 34.3798 243.051 34.2169 243.051 34.0161C243.051 33.8152 242.888 33.6523 242.687 33.6523C242.487 33.6523 242.324 33.8152 242.324 34.0161C242.324 34.2169 242.487 34.3798 242.687 34.3798Z" fill="#D0CDE1"/>
<path d="M243.882 34.3798C244.083 34.3798 244.246 34.2169 244.246 34.0161C244.246 33.8152 244.083 33.6523 243.882 33.6523C243.681 33.6523 243.519 33.8152 243.519 34.0161C243.519 34.2169 243.681 34.3798 243.882 34.3798Z" fill="#D0CDE1"/>
<path d="M233.279 40.4596C232.901 40.2323 232.445 40.2497 232.272 40.2671C232.338 40.4281 232.536 40.8389 232.914 41.0662C233.293 41.294 233.748 41.2762 233.92 41.2589C233.855 41.0979 233.657 40.687 233.279 40.4596Z" fill="#D0CDE1"/>
<path d="M235.054 44.9688H232.693C232.552 44.9688 232.416 45.0247 232.317 45.1244C232.217 45.224 232.161 45.3592 232.161 45.5001C232.161 45.6411 232.217 45.7762 232.317 45.8759C232.416 45.9755 232.552 46.0315 232.693 46.0315H235.054C235.195 46.0315 235.33 45.9755 235.43 45.8759C235.53 45.7762 235.586 45.6411 235.586 45.5001C235.586 45.3592 235.53 45.224 235.43 45.1244C235.33 45.0247 235.195 44.9688 235.054 44.9688H235.054Z" fill="#D0CDE1"/>
<path d="M245.749 39.3594H232.507C232.353 39.3594 232.201 39.3897 232.059 39.4487C231.916 39.5076 231.787 39.594 231.678 39.7029C231.569 39.8119 231.483 39.9412 231.424 40.0835C231.365 40.2258 231.334 40.3783 231.334 40.5323V46.9839C231.334 47.295 231.458 47.5933 231.678 47.8133C231.898 48.0333 232.196 48.1569 232.507 48.1569H245.749C246.06 48.1569 246.358 48.0333 246.578 47.8133C246.798 47.5933 246.922 47.295 246.922 46.9839V40.5323C246.922 40.3783 246.892 40.2258 246.833 40.0835C246.774 39.9412 246.687 39.8119 246.578 39.7029C246.47 39.594 246.34 39.5076 246.198 39.4487C246.056 39.3897 245.903 39.3594 245.749 39.3594ZM232.18 40.1595C232.206 40.1548 232.826 40.0493 233.339 40.3582C233.853 40.6671 234.05 41.2644 234.058 41.2897L234.079 41.3541L234.012 41.3659C233.917 41.3807 233.821 41.3878 233.725 41.387C233.492 41.387 233.154 41.3484 232.853 41.1671C232.339 40.8583 232.142 40.261 232.134 40.2357L232.113 40.1713L232.18 40.1595ZM235.054 46.1494H232.692C232.52 46.1494 232.355 46.081 232.233 45.9592C232.111 45.8374 232.043 45.6722 232.043 45.4999C232.043 45.3277 232.111 45.1625 232.233 45.0407C232.355 44.9189 232.52 44.8504 232.692 44.8504H235.054C235.226 44.8504 235.392 44.9189 235.513 45.0407C235.635 45.1625 235.704 45.3277 235.704 45.4999C235.704 45.6722 235.635 45.8374 235.513 45.9592C235.392 46.081 235.226 46.1494 235.054 46.1494H235.054ZM245.8 46.0313C245.8 46.219 245.725 46.3989 245.592 46.5317C245.459 46.6645 245.279 46.7393 245.092 46.7398H243.32C243.133 46.7393 242.953 46.6645 242.82 46.5317C242.687 46.3989 242.612 46.219 242.612 46.0313V44.9685C242.612 44.7808 242.687 44.6009 242.82 44.4681C242.953 44.3354 243.133 44.2605 243.32 44.26H245.092C245.279 44.2605 245.459 44.3354 245.592 44.4681C245.725 44.6009 245.8 44.7808 245.8 44.9685V46.0313Z" fill="#D0CDE1"/>
<path d="M243.881 45.8242H243.113C243.059 45.8242 243.006 45.846 242.967 45.8847C242.929 45.9235 242.907 45.9761 242.907 46.0309C242.907 46.0857 242.929 46.1382 242.967 46.177C243.006 46.2158 243.059 46.2375 243.113 46.2375H243.881C243.936 46.2374 243.988 46.2156 244.027 46.1769C244.066 46.1381 244.087 46.0856 244.087 46.0309C244.087 45.9761 244.066 45.9236 244.027 45.8849C243.988 45.8461 243.936 45.8243 243.881 45.8242ZM243.881 46.1194H243.113C243.09 46.1194 243.067 46.11 243.051 46.0934C243.034 46.0768 243.025 46.0543 243.025 46.0309C243.025 46.0074 243.034 45.9849 243.051 45.9683C243.067 45.9517 243.09 45.9424 243.113 45.9423H243.881C243.904 45.9423 243.927 45.9516 243.944 45.9682C243.96 45.9849 243.97 46.0074 243.97 46.0309C243.97 46.0544 243.96 46.0769 243.944 46.0935C243.927 46.1101 243.904 46.1194 243.881 46.1194Z" fill="#D0CDE1"/>
<path d="M245.298 45.8242H244.531C244.476 45.8242 244.424 45.846 244.385 45.8847C244.346 45.9235 244.324 45.9761 244.324 46.0309C244.324 46.0857 244.346 46.1382 244.385 46.177C244.424 46.2158 244.476 46.2375 244.531 46.2375H245.298C245.353 46.2374 245.406 46.2156 245.444 46.1769C245.483 46.1381 245.505 46.0856 245.505 46.0309C245.505 45.9761 245.483 45.9236 245.444 45.8849C245.406 45.8461 245.353 45.8243 245.298 45.8242ZM245.298 46.1194H244.531C244.507 46.1194 244.485 46.1101 244.468 46.0935C244.452 46.0769 244.442 46.0544 244.442 46.0309C244.442 46.0074 244.452 45.9849 244.468 45.9682C244.485 45.9516 244.507 45.9423 244.531 45.9423H245.298C245.322 45.9423 245.344 45.9516 245.361 45.9682C245.378 45.9849 245.387 46.0074 245.387 46.0309C245.387 46.0544 245.378 46.0769 245.361 46.0935C245.344 46.1101 245.322 46.1194 245.298 46.1194Z" fill="#D0CDE1"/>
<path d="M243.881 45.293H243.113C243.059 45.293 243.006 45.3147 242.967 45.3535C242.929 45.3923 242.907 45.4448 242.907 45.4996C242.907 45.5544 242.929 45.607 242.967 45.6457C243.006 45.6845 243.059 45.7063 243.113 45.7063H243.881C243.936 45.7063 243.988 45.6845 244.027 45.6457C244.066 45.607 244.088 45.5544 244.088 45.4996C244.088 45.4448 244.066 45.3923 244.027 45.3535C243.988 45.3147 243.936 45.293 243.881 45.293ZM243.881 45.5882H243.113C243.09 45.5881 243.067 45.5788 243.051 45.5622C243.034 45.5456 243.025 45.5231 243.025 45.4996C243.025 45.4762 243.034 45.4537 243.051 45.4371C243.067 45.4205 243.09 45.4111 243.113 45.4111H243.881C243.904 45.4111 243.927 45.4204 243.944 45.437C243.96 45.4536 243.97 45.4761 243.97 45.4996C243.97 45.5231 243.96 45.5456 243.944 45.5622C243.927 45.5789 243.904 45.5882 243.881 45.5882Z" fill="#D0CDE1"/>
<path d="M245.298 45.293H244.531C244.476 45.293 244.424 45.3147 244.385 45.3535C244.346 45.3923 244.324 45.4448 244.324 45.4996C244.324 45.5544 244.346 45.607 244.385 45.6457C244.424 45.6845 244.476 45.7063 244.531 45.7063H245.298C245.353 45.7063 245.406 45.6845 245.445 45.6457C245.483 45.607 245.505 45.5544 245.505 45.4996C245.505 45.4448 245.483 45.3923 245.445 45.3535C245.406 45.3147 245.353 45.293 245.298 45.293ZM245.298 45.5882H244.531C244.507 45.5882 244.485 45.5789 244.468 45.5622C244.452 45.5456 244.442 45.5231 244.442 45.4996C244.442 45.4761 244.452 45.4536 244.468 45.437C244.485 45.4204 244.507 45.4111 244.531 45.4111H245.298C245.322 45.4111 245.344 45.4204 245.361 45.437C245.378 45.4536 245.387 45.4761 245.387 45.4996C245.387 45.5231 245.378 45.5456 245.361 45.5622C245.344 45.5789 245.322 45.5882 245.298 45.5882Z" fill="#D0CDE1"/>
<path d="M243.881 44.7617H243.113C243.086 44.7617 243.059 44.7671 243.034 44.7774C243.009 44.7878 242.986 44.8031 242.967 44.8222C242.948 44.8414 242.933 44.8642 242.922 44.8893C242.912 44.9144 242.907 44.9412 242.907 44.9684C242.907 44.9955 242.912 45.0224 242.922 45.0475C242.933 45.0725 242.948 45.0953 242.967 45.1145C242.986 45.1337 243.009 45.1489 243.034 45.1593C243.059 45.1697 243.086 45.175 243.113 45.175H243.881C243.936 45.175 243.988 45.1533 244.027 45.1145C244.066 45.0757 244.088 45.0232 244.088 44.9684C244.088 44.9136 244.066 44.861 244.027 44.8222C243.988 44.7835 243.936 44.7617 243.881 44.7617ZM243.881 45.0569H243.113C243.09 45.0569 243.067 45.0475 243.051 45.0309C243.034 45.0143 243.025 44.9918 243.025 44.9684C243.025 44.9449 243.034 44.9224 243.051 44.9058C243.067 44.8892 243.09 44.8799 243.113 44.8798H243.881C243.904 44.8799 243.927 44.8892 243.943 44.9058C243.96 44.9224 243.969 44.9449 243.969 44.9684C243.969 44.9918 243.96 45.0143 243.943 45.0309C243.927 45.0475 243.904 45.0569 243.881 45.0569Z" fill="#D0CDE1"/>
<path d="M245.298 44.7617H244.531C244.504 44.7617 244.477 44.7671 244.452 44.7774C244.427 44.7878 244.404 44.8031 244.385 44.8222C244.366 44.8414 244.35 44.8642 244.34 44.8893C244.33 44.9144 244.324 44.9412 244.324 44.9684C244.324 44.9955 244.33 45.0224 244.34 45.0475C244.35 45.0725 244.366 45.0953 244.385 45.1145C244.404 45.1337 244.427 45.1489 244.452 45.1593C244.477 45.1697 244.504 45.175 244.531 45.175H245.298C245.353 45.175 245.406 45.1533 245.445 45.1145C245.483 45.0757 245.505 45.0232 245.505 44.9684C245.505 44.9136 245.483 44.861 245.445 44.8222C245.406 44.7835 245.353 44.7617 245.298 44.7617ZM245.298 45.0569H244.531C244.507 45.0569 244.485 45.0476 244.468 45.031C244.452 45.0144 244.442 44.9919 244.442 44.9684C244.442 44.9449 244.452 44.9224 244.468 44.9057C244.485 44.8891 244.507 44.8798 244.531 44.8798H245.298C245.322 44.8799 245.344 44.8892 245.361 44.9058C245.377 44.9224 245.387 44.9449 245.387 44.9684C245.387 44.9918 245.377 45.0143 245.361 45.0309C245.344 45.0475 245.322 45.0569 245.298 45.0569Z" fill="#D0CDE1"/>
</svg>
